<?xml version="1.0" encoding="UTF-8"?>
<svg width="28px" height="54px" viewBox="0 0 28 54" version="1.1" xmlns="http://www.w3.org/2000/svg" xmlns:xlink="http://www.w3.org/1999/xlink">
    <g id="Pages-desctop" stroke="none" stroke-width="1" fill="none" fill-rule="evenodd">
        <g id="Main-page_1920-new" transform="translate(-1627.000000, -2908.000000)" fill="#000000" fill-rule="nonzero">
            <g id="Nashi-partneri" transform="translate(267.000000, 2699.000000)">
                <path d="M1363.1562,262.441379 C1362.79549,262.813793 1362.34461,263 1361.84863,263 C1361.35266,263 1360.90177,262.813793 1360.54106,262.441379 C1359.81965,261.696552 1359.81965,260.486207 1360.54106,259.741379 L1383.53623,236 L1360.54106,212.258621 C1359.81965,211.513793 1359.81965,210.303448 1360.54106,209.558621 C1361.26248,208.813793 1362.43478,208.813793 1363.1562,209.558621 L1387.45894,234.65 C1388.18035,235.394828 1388.18035,236.605172 1387.45894,237.35 L1363.1562,262.441379 L1363.1562,262.441379 Z" id="Path" transform="translate(1374.000000, 236.000000) scale(-1, 1) rotate(-360.000000) translate(-1374.000000, -236.000000) "></path>
            </g>
        </g>
    </g>
</svg>