<?xml version="1.0" encoding="UTF-8"?>
<svg width="12px" height="20px" viewBox="0 0 12 20" version="1.1" xmlns="http://www.w3.org/2000/svg" xmlns:xlink="http://www.w3.org/1999/xlink">
    <!-- Generator: Sketch 58 (84663) - https://sketch.com -->
    <title>Path</title>
    <desc>Created with Sketch.</desc>
    <g id="Site" stroke="none" stroke-width="1" fill="none" fill-rule="evenodd">
        <g id="HOME-PAGE" transform="translate(-412.000000, -5280.000000)" fill="#E30614">
            <g id="Group-8" transform="translate(404.000000, 5213.000000)">
                <g id="Group-7">
                    <g id="Group-6" transform="translate(0.000000, 25.000000)">
                        <path d="M12.050023,52.0042276 L19.6745643,44.5219512 C19.8845068,44.3164228 20,44.041626 20,43.7486179 C20,43.4554472 19.8845068,43.180813 19.6745643,42.9749593 L19.00646,42.3196748 C18.7968489,42.1134959 18.5166494,42 18.2180572,42 C17.9194649,42 17.6395968,42.1134959 17.4298201,42.3196748 L8.35158856,51.2279675 C8.14098326,51.4344715 8.02565574,51.7104065 8.0264798,52.0037398 C8.02565574,52.298374 8.14081756,52.5739837 8.35158856,52.7806504 L17.4213693,61.6803252 C17.6311461,61.8865041 17.9110142,62 18.2097722,62 C18.5083644,62 18.7882325,61.8865041 18.998175,61.6803252 L19.6661136,61.0250407 C20.1007459,60.5985366 20.1007459,59.9042276 19.6661136,59.4778862 L12.050023,52.0042276 Z" id="Path"></path>
                    </g>
                </g>
            </g>
        </g>
    </g>
</svg>