<?xml version="1.0" encoding="UTF-8"?>
<svg width="52px" height="52px" viewBox="0 0 52 52" version="1.1" xmlns="http://www.w3.org/2000/svg" xmlns:xlink="http://www.w3.org/1999/xlink">
    <!-- Generator: Sketch 58 (84663) - https://sketch.com -->
    <title>Path</title>
    <desc>Created with Sketch.</desc>
    <g id="Site" stroke="none" stroke-width="1" fill="none" fill-rule="evenodd">
        <g id="Solicita-Oferta-cu-precomanda" transform="translate(-1259.000000, -1096.000000)" fill="#162E53">
            <g id="Group-3" transform="translate(688.000000, 1096.000000)">
                <g id="iconfinder_icon-close_211652-2" transform="translate(571.000000, 0.000000)">
                    <g id="iconfinder_icon-close_211652">
                        <path d="M51.2774026,43.6124675 L33.5568831,25.8244156 L51.3179221,8.26597403 C52.0472727,7.53662338 52.0472727,6.34805195 51.3179221,5.6187013 L46.2664935,0.54025974 C45.9153247,0.189090909 45.4425974,0 44.9428571,0 C44.4431169,0 43.9703896,0.202597403 43.6192208,0.54025974 L25.9392208,18.0446753 L8.23220779,0.553766234 C7.88103896,0.202597403 7.40831169,0.0135064935 6.90857143,0.0135064935 C6.40883117,0.0135064935 5.9361039,0.216103896 5.58493506,0.553766234 L0.547012987,5.63220779 C-0.182337662,6.36155844 -0.182337662,7.55012987 0.547012987,8.27948052 L18.3080519,25.8379221 L0.601038961,43.6124675 C0.24987013,43.9636364 0.0472727273,44.4363636 0.0472727273,44.9361039 C0.0472727273,45.4358442 0.236363636,45.9085714 0.601038961,46.2597403 L5.65246753,51.3381818 C6.01714286,51.7028571 6.48987013,51.8919481 6.9761039,51.8919481 C7.44883117,51.8919481 7.93506494,51.7163636 8.29974026,51.3381818 L25.9392208,33.6176623 L43.5922078,51.3246753 C43.9568831,51.6893506 44.4296104,51.8784416 44.9158442,51.8784416 C45.3885714,51.8784416 45.8748052,51.7028571 46.2394805,51.3246753 L51.2909091,46.2462338 C51.6420779,45.8950649 51.8446753,45.4223377 51.8446753,44.9225974 C51.8311688,44.4363636 51.6285714,43.9636364 51.2774026,43.6124675 Z" id="Path"></path>
                    </g>
                </g>
            </g>
        </g>
    </g>
</svg>