<?xml version="1.0" encoding="UTF-8"?>
<svg width="8px" height="9px" viewBox="0 0 8 9" version="1.1" xmlns="http://www.w3.org/2000/svg" xmlns:xlink="http://www.w3.org/1999/xlink">
    <!-- Generator: Sketch 58 (84663) - https://sketch.com -->
    <title>Group</title>
    <desc>Created with Sketch.</desc>
    <g id="Site" stroke="none" stroke-width="1" fill="none" fill-rule="evenodd">
        <g id="Carier-one" transform="translate(-469.000000, -1058.000000)" fill="#162E53">
            <g id="Breadcrapms" transform="translate(404.000000, 1050.000000)">
                <g id="Group-2">
                    <g id="Group" transform="translate(65.000000, 8.000000)">
                        <path d="M4.6801839,4.50190244 L7.8641019,1.13487805 C7.9517714,1.04239024 8,0.918731707 8,0.786878049 C8,0.65495122 7.9517714,0.531365854 7.8641019,0.438731707 L7.58510948,0.143853659 C7.49757838,0.0510731707 7.38057039,0 7.25588181,0 C7.13119324,0 7.01432364,0.0510731707 6.92672334,0.143853659 L3.13576156,4.15258537 C3.04781529,4.2455122 2.99965588,4.36968293 3,4.50168293 C2.99965588,4.63426829 3.04774609,4.75829268 3.13576156,4.85129268 L6.92319442,8.85614634 C7.01079472,8.94892683 7.12766431,9 7.25242209,9 C7.37711067,9 7.49398026,8.94892683 7.58164975,8.85614634 L7.86057298,8.56126829 C8.04207029,8.36934146 8.04207029,8.05690244 7.86057298,7.86504878 L4.6801839,4.50190244 Z" id="Path" transform="translate(5.500000, 4.500000) scale(-1, -1) translate(-5.500000, -4.500000) "></path>
                        <path d="M1.6801839,4.50190244 L4.8641019,1.13487805 C4.9517714,1.04239024 5,0.918731707 5,0.786878049 C5,0.65495122 4.9517714,0.531365854 4.8641019,0.438731707 L4.58510948,0.143853659 C4.49757838,0.0510731707 4.38057039,0 4.25588181,0 C4.13119324,0 4.01432364,0.0510731707 3.92672334,0.143853659 L0.13576156,4.15258537 C0.0478152875,4.2455122 -0.000344118934,4.36968293 0,4.50168293 C-0.000344118934,4.63426829 0.047746093,4.75829268 0.13576156,4.85129268 L3.92319442,8.85614634 C4.01079472,8.94892683 4.12766431,9 4.25242209,9 C4.37711067,9 4.49398026,8.94892683 4.58164975,8.85614634 L4.86057298,8.56126829 C5.04207029,8.36934146 5.04207029,8.05690244 4.86057298,7.86504878 L1.6801839,4.50190244 Z" id="Path-Copy" transform="translate(2.500000, 4.500000) scale(-1, -1) translate(-2.500000, -4.500000) "></path>
                    </g>
                </g>
            </g>
        </g>
    </g>
</svg>