<?xml version="1.0" encoding="UTF-8"?>
<svg width="25px" height="21px" viewBox="0 0 25 21" version="1.1" xmlns="http://www.w3.org/2000/svg" xmlns:xlink="http://www.w3.org/1999/xlink">
    <!-- Generator: Sketch 58 (84663) - https://sketch.com -->
    <title>send</title>
    <desc>Created with Sketch.</desc>
    <g id="Site" stroke="none" stroke-width="1" fill="none" fill-rule="evenodd">
        <g id="Contacts" transform="translate(-1293.000000, -2290.000000)" fill="#FFFFFF">
            <g id="Conactati" transform="translate(974.000000, 1762.000000)">
                <g id="send-2" transform="translate(319.000000, 528.000000)">
                    <g id="send">
                        <path d="M24.9983887,0.684901345 C24.9685059,0.225632287 24.4855469,-0.107307175 23.9939941,0.0741121076 C23.8690918,0.122656951 25.0285645,-0.660275785 7.38764648,11.4545112 C7.19467773,11.5870561 7.08012695,11.8013879 7.08012695,12.0297982 L7.08012695,20.2697085 C7.08012695,20.5950202 7.31132813,20.8807332 7.64316406,20.9568229 C7.97260742,21.0323475 8.3137207,20.8801211 8.46665039,20.5875336 C8.73789062,20.0684664 11.1372559,15.4771413 11.5432129,14.7003767 L24.7991211,1.21531614 C24.9402832,1.07170628 25.0112305,0.87955157 24.9983887,0.684901345 Z" id="Path"></path>
                        <path d="M12.7543457,15.5215897 L12.3948242,16.2095045 L17.8740234,20.1306659 C18.2799316,20.4211816 18.8633789,20.2364193 19.011084,19.7695695 L23.9602539,4.12193274 L12.7543457,15.5215897 Z" id="Path"></path>
                        <path d="M6.53789062,10.3039372 L18.4763672,2.10522646 L0.471191406,8.73326906 C0.187939453,8.83756278 0.0005859375,9.0993565 -1.37830409e-06,9.39170852 C-0.0005859375,9.68410762 0.185693359,9.94660762 0.468554687,10.0519372 L5.61713867,11.9693879 C5.63686523,11.3081233 5.97719727,10.689 6.53789062,10.3039372 Z" id="Path"></path>
                    </g>
                </g>
            </g>
        </g>
    </g>
</svg>